<svg id="Layer_1" data-name="Layer 1" xmlns="http://www.w3.org/2000/svg" viewBox="0 0 1847.78 1830.01">
  <defs>
    <style>
      * {
        fill: #1e1e1e;
      }
      .cls-1 {
        fill: #fff;
      }
    </style>
  </defs>
  <g id="Illustration">
    <g id="Coding_workshop" data-name="Coding workshop">
      <g>
        <g>
          <g>
            <path d="M1218.37,991.74l-350.56,2.19c-2.27,0-3,2.12-3,4.14v298.26c0,28.55-199.18,102.75-201.12,99l-.24,31.57c0,5.88,5.15,11.09,11.74,11.09H973.58a102.74,102.74,0,0,0,39.46-8.22l161.6-68c29.09-12.25,47.45-38.56,47.45-67.25V995.87A3.93,3.93,0,0,0,1218.37,991.74Z" transform="translate(-1.11 -9.99)"/>
            <g>
              <path class="cls-1" d="M829.29,976.56v298.32c0,29.41-18.93,56.21-48.66,68.9l-109,46.53c-7.12,3-4.69,12.58,3.2,12.58H974.36a100.78,100.78,0,0,0,39-7.79l120.79-50.85c30-12.61,49.07-39.52,49.07-69.07V976.56a2.35,2.35,0,0,0-2.48-2.21H831.84a2.36,2.36,0,0,0-2.54,2.15Z" transform="translate(-1.11 -9.99)"/>
              <path d="M974.34,1405.12H674.81c-5.53,0-8.75-3.63-9.48-7.23a8.57,8.57,0,0,1,5.41-9.63l109-46.53c28.74-12.27,47.31-38.51,47.31-66.85V976.56a4.58,4.58,0,0,1,4.71-4.44h348.9a4.57,4.57,0,0,1,4.71,4.44v298.62c0,30.31-19.8,58.23-50.44,71.13l-120.78,50.85A103.58,103.58,0,0,1,974.34,1405.12ZM831.52,976.65v298.23c0,30.13-19.63,58-50,70.95l-109,46.53c-2.15.92-3.2,2.65-2.79,4.64.34,1.69,1.89,3.66,5.11,3.66H974.37a99.18,99.18,0,0,0,38.09-7.61l120.78-50.86c29-12.2,47.71-38.5,47.71-67V976.59H831.8A.36.36,0,0,0,831.52,976.65Z" transform="translate(-1.11 -9.99)"/>
            </g>
          </g>
          <g>
            <path d="M174,1147.53l1511,3.39c13.22,0,26.41-9.94,28.09-23.08l122.77-945.48c2.93-22.91-14.81-45.7-37.6-45.13l-1493.5,7.89Z" transform="translate(-1.11 -9.99)"/>
            <g>
              <path class="cls-1" d="M1738.91,142.6c26,0,49.47,26.36,46.14,52.2l-119.2,930.73c-1.69,13.15-15.76,24.27-29,24.27l-1484.23-2.41c-15.85,0-26.45-13.16-24.42-28.93l123.45-948c1.69-13.14,10.38-27.88,23.6-27.88Z" transform="translate(-1.11 -9.99)"/>
              <path d="M1636.87,1152l-1484.25-2.41a26.39,26.39,0,0,1-20.17-8.82,28.68,28.68,0,0,1-6.46-22.62l123.45-948c1.86-14.45,11.54-29.82,25.81-29.82H1738.91c13.12,0,26.2,6.31,35.87,17.31s14.14,24.54,12.49,37.41l-119.21,930.73C1666.26,1139.78,1651.69,1152,1636.87,1152ZM275.25,144.83c-11.73,0-19.77,13.36-21.39,25.93l-123.44,948a24,24,0,0,0,5.38,19.11,22,22,0,0,0,16.82,7.3l1484.26,2.41c12.5,0,25.25-10.64,26.76-22.32l119.2-930.73c1.49-11.6-2.66-23.95-11.41-33.89s-20.68-15.8-32.52-15.8Z" transform="translate(-1.11 -9.99)"/>
            </g>
            <path d="M1602,1109.66l-1402.37-2.21a24.45,24.45,0,0,1-18.68-8.17,26.53,26.53,0,0,1-6-21L288.5,206.2c1.72-13.38,10.69-27.59,23.92-27.59H1695.84c12.12,0,24.2,5.82,33.13,16s13.06,22.67,11.53,34.56l-109.66,856.22C1629.17,1098.32,1615.68,1109.66,1602,1109.66ZM312.42,183.07c-10.68,0-18,12.21-19.5,23.7L179.36,1078.9a21.75,21.75,0,0,0,4.91,17.43,20,20,0,0,0,15.34,6.66L1602,1105.2c11.42,0,23.07-9.71,24.44-20.38l109.67-856.24c1.36-10.62-2.44-21.94-10.46-31s-18.94-14.47-29.78-14.47Z" transform="translate(-1.11 -9.99)"/>
          </g>
        </g>
        <g>
          <g>
            <path d="M1548.39,301.24H978.34a2.23,2.23,0,0,1-2.23-2.21,3,3,0,0,1,0-.31L980,270.14a2.23,2.23,0,0,1,2.21-1.93h570.05a2.21,2.21,0,0,1,2.23,2.21,1.1,1.1,0,0,1,0,.31l-3.84,28.58A2.22,2.22,0,0,1,1548.39,301.24Zm-567.5-4.46h565.55l3.24-24.11H984.13Z" transform="translate(-1.11 -9.99)"/>
            <polygon points="1670.29 336.13 1089.49 336.13 1093.33 307.56 1674.13 307.56 1670.29 336.13"/>
            <path d="M1595,395.48h-300.2a2.23,2.23,0,0,1-2.23-2.23c0-.1,0-.2,0-.3l3.84-28.58a2.24,2.24,0,0,1,2.21-1.93h300.21a2.22,2.22,0,0,1,2.23,2.23,1.51,1.51,0,0,1,0,.3l-3.84,28.58A2.24,2.24,0,0,1,1595,395.48ZM1297.38,391h295.7l3.25-24.12H1300.62Z" transform="translate(-1.11 -9.99)"/>
            <path d="M1497.71,678.19h-570a2.31,2.31,0,0,1-2.22-2.53l3.85-28.58a2.22,2.22,0,0,1,2.21-1.93h570a2.22,2.22,0,0,1,2.23,2.23,1.51,1.51,0,0,1,0,.3l-3.84,28.57A2.22,2.22,0,0,1,1497.71,678.19Zm-567.49-4.46h565.54l3.24-24.12H933.46Z" transform="translate(-1.11 -9.99)"/>
            <path d="M1189.27,725.3H1039.93a2.24,2.24,0,0,1-2.22-2.52l3.85-28.58a2.22,2.22,0,0,1,2.21-1.93h135.09a2.23,2.23,0,0,1,0,4.46H1045.72l-3.24,24.11h146.79a2.23,2.23,0,0,1,0,4.46Z" transform="translate(-1.11 -9.99)"/>
            <path d="M1620.73,725.3H1262a2.23,2.23,0,0,1,0-4.46h356.78l3.25-24.11H1242.63a2.23,2.23,0,0,1,0-4.46h381.94a2.22,2.22,0,0,1,2.21,2.52l-3.84,28.58A2.23,2.23,0,0,1,1620.73,725.3Z" transform="translate(-1.11 -9.99)"/>
            <path d="M1614.39,772.42H1304.13a2.23,2.23,0,0,1,0-4.46h308.32l3.24-24.12H1287a2.23,2.23,0,0,1,0-4.46h331.19a2.23,2.23,0,0,1,2.23,2.25,1.37,1.37,0,0,1,0,.28l-3.84,28.58A2.22,2.22,0,0,1,1614.39,772.42Z" transform="translate(-1.11 -9.99)"/>
            <path d="M1236.94,817.58H1025.37a2.23,2.23,0,0,1-2.23-2.23c0-.1,0-.2,0-.3l3.84-28.58a2.23,2.23,0,0,1,2.21-1.93h174.13a2.23,2.23,0,1,1,0,4.46H1031.16l-3.24,24.12h209a2.23,2.23,0,1,1,0,4.46h0Z" transform="translate(-1.11 -9.99)"/>
            <polygon points="1528.27 430.37 958.23 430.37 962.07 401.79 1532.12 401.79 1528.27 430.37"/>
            <polygon points="1568.19 477.49 1070.49 477.49 1074.33 448.91 1568.95 448.91 1568.19 477.49"/>
            <path d="M1499.66,584H1269.49a2.23,2.23,0,0,1-2.23-2.23c0-.1,0-.2,0-.3l3.84-28.57a2.24,2.24,0,0,1,2.21-1.94H1503.5a2.24,2.24,0,0,1,2.24,2.26,1.23,1.23,0,0,1,0,.27L1501.87,582A2.22,2.22,0,0,1,1499.66,584ZM1272,579.49h225.7l3.24-24.12H1275.29Z" transform="translate(-1.11 -9.99)"/>
            <polygon points="1561.04 618.8 1330.87 618.8 1334.71 590.23 1564.88 590.23 1561.04 618.8"/>
            <polygon points="1549.96 524.6 1274.72 524.6 1278.56 496.03 1551.1 496.03 1549.96 524.6"/>
            <polygon class="cls-1" points="1471.26 854.43 901.22 854.43 905.06 825.85 1475.1 825.85 1471.26 854.43"/>
            <path d="M1315.52,913.77H1014.59a2.23,2.23,0,0,1-2.23-2.21,3,3,0,0,1,0-.31l3.84-28.58a2.22,2.22,0,0,1,2.21-1.93h286.84a2.23,2.23,0,1,1,0,4.46H1020.38l-3.24,24.11h298.38a2.23,2.23,0,1,1,0,4.46Z" transform="translate(-1.11 -9.99)"/>
            <path d="M1473.82,960.89h-255a2.23,2.23,0,0,1-2.23-2.23c0-.1,0-.2,0-.3l3.84-28.57a2.24,2.24,0,0,1,2.21-1.94h242a2.23,2.23,0,1,1,0,4.46H1224.61l-3.24,24.12h252.45a2.23,2.23,0,1,1,0,4.46Z" transform="translate(-1.11 -9.99)"/>
            <polygon class="cls-1" points="1452.26 995.78 882.21 995.78 886.05 967.2 1456.1 967.2 1452.26 995.78"/>
            <path d="M1471.54,1055.13h-476a2.23,2.23,0,0,1-2.23-2.23c0-.1,0-.2,0-.3l3.84-28.58a2.25,2.25,0,0,1,2.22-1.93h474.39a2.23,2.23,0,1,1,0,4.46h-472.4l-3.25,24.12h473.41a2.23,2.23,0,1,1,0,4.46Z" transform="translate(-1.11 -9.99)"/>
          </g>
          <g>
            <polygon points="885.51 618.28 829.98 618.28 833.67 590.82 889.2 590.82 885.51 618.28"/>
            <polygon points="931.86 289.02 873.98 289.02 877.82 260.44 935.7 260.44 931.86 289.02"/>
            <polygon points="937.68 245.71 879.8 245.71 883.65 217.13 941.52 217.13 937.68 245.71"/>
            <polygon points="925.08 336.14 867.65 336.14 871.49 307.56 928.92 307.56 925.08 336.14"/>
            <polygon points="916.8 383.25 862.29 383.25 866.13 354.68 920.64 354.68 916.8 383.25"/>
            <polygon points="910.76 430.37 855.27 430.37 859.11 401.79 914.6 401.79 910.76 430.37"/>
            <polygon points="904.13 477.49 848.64 477.49 852.49 448.91 907.97 448.91 904.13 477.49"/>
            <polygon points="893.1 569.83 838.11 569.83 841.96 541.26 896.94 541.26 893.1 569.83"/>
            <polygon points="898.05 522.72 845.48 522.72 849.32 494.14 901.89 494.14 898.05 522.72"/>
            <polygon points="866.27 761.4 810.74 761.4 814.43 733.95 869.96 733.95 866.27 761.4"/>
            <polygon points="873.86 712.96 818.87 712.96 822.72 684.38 877.7 684.38 873.86 712.96"/>
            <polygon points="878.81 665.84 826.24 665.84 830.08 637.26 882.65 637.26 878.81 665.84"/>
            <polygon points="828.8 1040.12 773.27 1040.12 776.96 1012.66 832.49 1012.66 828.8 1040.12"/>
            <polygon points="860.08 805.09 805.57 805.09 809.42 776.52 863.93 776.52 860.08 805.09"/>
            <polygon points="854.04 852.21 798.56 852.21 802.4 823.63 857.89 823.63 854.04 852.21"/>
            <polygon points="847.42 899.33 791.93 899.33 795.77 870.75 851.26 870.75 847.42 899.33"/>
            <polygon points="836.39 991.67 781.4 991.67 785.25 963.09 840.23 963.09 836.39 991.67"/>
            <polygon points="841.34 944.55 788.77 944.55 792.61 915.98 845.18 915.98 841.34 944.55"/>
          </g>
          <g>
            <polygon points="637.52 239.45 363.12 239.45 366.81 211.99 641.21 211.99 637.52 239.45"/>
            <path d="M686.85,299.36H397.6a2.23,2.23,0,0,1-2.23-2.23c0-.1,0-.2,0-.3l3.84-28.58a2.24,2.24,0,0,1,2.21-1.93H690.69a2.22,2.22,0,0,1,2.23,2.23,1.51,1.51,0,0,1,0,.3l-3.84,28.58A2.24,2.24,0,0,1,686.85,299.36Zm-286.7-4.46H684.9l3.24-24.12H403.39Z" transform="translate(-1.11 -9.99)"/>
            <path d="M762.46,346.48h-337a2.24,2.24,0,0,1-2.22-2.25,2.53,2.53,0,0,1,0-.28l3.84-28.58a2.22,2.22,0,0,1,2.21-1.93h337a2.22,2.22,0,0,1,2.23,2.23,1.51,1.51,0,0,1,0,.3l-3.84,28.57A2.22,2.22,0,0,1,762.46,346.48ZM428,342h332.5l3.24-24.12H431.26Z" transform="translate(-1.11 -9.99)"/>
            <path d="M805.66,393.59H524.45a2.23,2.23,0,0,1-2.23-2.21,3,3,0,0,1,0-.31l3.84-28.58a2.22,2.22,0,0,1,2.21-1.93H809.51a2.22,2.22,0,0,1,2.21,2.52l-3.85,28.58A2.22,2.22,0,0,1,805.66,393.59ZM527,389.13h276.7L807,365H530.24Z" transform="translate(-1.11 -9.99)"/>
            <polygon points="534.7 616.39 312.44 616.39 316.13 588.94 538.39 588.94 534.7 616.39"/>
            <path d="M539.27,676.3H376.74a2.23,2.23,0,0,1-2.23-2.23c0-.1,0-.2,0-.3l3.84-28.58a2.24,2.24,0,0,1,2.21-1.93H543.12a2.24,2.24,0,0,1,2.21,2.53l-3.85,28.58A2.23,2.23,0,0,1,539.27,676.3Zm-160-4.46h158l3.25-24.12h-158Z" transform="translate(-1.11 -9.99)"/>
            <path d="M597.47,723.42H441.88a2.24,2.24,0,0,1-2.22-2.25,2.53,2.53,0,0,1,0-.28l3.84-28.58a2.24,2.24,0,0,1,2.21-1.93H601.31a2.2,2.2,0,0,1,1.68.76,2.16,2.16,0,0,1,.53,1.77l-3.84,28.57A2.22,2.22,0,0,1,597.47,723.42Zm-153-4.46h151l3.24-24.12H447.67Z" transform="translate(-1.11 -9.99)"/>
            <path d="M700.48,770.53H503.59a2.26,2.26,0,0,1-1.68-.76,2.22,2.22,0,0,1-.53-1.76l3.84-28.58a2.22,2.22,0,0,1,2.21-1.93H704.32a2.22,2.22,0,0,1,2.24,2.21,1.71,1.71,0,0,1,0,.31l-3.84,28.58A2.22,2.22,0,0,1,700.48,770.53Zm-194.34-4.46H698.53L701.77,742H509.38Z" transform="translate(-1.11 -9.99)"/>
            <polygon points="539.99 428.48 341.26 428.48 345.11 399.9 543.83 399.9 539.99 428.48"/>
            <path d="M788.07,487.83H481a2.23,2.23,0,0,1-2.23-2.23c0-.1,0-.2,0-.3l3.84-28.58a2.23,2.23,0,0,1,2.21-1.93H791.91a2.22,2.22,0,0,1,2.23,2.23,1.51,1.51,0,0,1,0,.3l-3.84,28.58A2.23,2.23,0,0,1,788.07,487.83Zm-304.51-4.46H786.12l3.24-24.12H486.8Z" transform="translate(-1.11 -9.99)"/>
            <polygon points="529.81 522.64 331.09 522.64 334.93 494.06 533.65 494.06 529.81 522.64"/>
            <path d="M777.89,582H470.83a2.23,2.23,0,0,1-2.23-2.23c0-.1,0-.2,0-.3l3.84-28.58a2.24,2.24,0,0,1,2.21-1.93H781.74a2.22,2.22,0,0,1,2.23,2.23,1.51,1.51,0,0,1,0,.3l-3.85,28.58A2.22,2.22,0,0,1,777.89,582Zm-304.51-4.46H775.94l3.25-24.12H476.62Z" transform="translate(-1.11 -9.99)"/>
            <polygon points="534.19 804.86 287.1 804.86 290.79 777.41 537.88 777.41 534.19 804.86"/>
            <path d="M695.26,864.77H291.77a2.23,2.23,0,0,1-2.23-2.23c0-.1,0-.2,0-.3l3.84-28.58a2.24,2.24,0,0,1,2.21-1.93H699.1a2.2,2.2,0,0,1,1.68.76,2.16,2.16,0,0,1,.53,1.77l-3.84,28.58A2.23,2.23,0,0,1,695.26,864.77Zm-400.94-4.46h399l3.24-24.12h-399Z" transform="translate(-1.11 -9.99)"/>
            <path d="M693.89,911.89H462.25a2.24,2.24,0,0,1-2.23-2.24,2.71,2.71,0,0,1,0-.29l3.85-28.58a2.23,2.23,0,0,1,2.21-1.93H697.73a2.24,2.24,0,0,1,2.24,2.24,1.46,1.46,0,0,1,0,.29L696.1,910A2.23,2.23,0,0,1,693.89,911.89ZM464.8,907.43H691.94l3.24-24.12H468Z" transform="translate(-1.11 -9.99)"/>
            <polygon points="595.63 993.89 440.72 993.89 428.19 965.32 599.47 965.32 595.63 993.89"/>
            <path d="M740.21,955.28H518a2.23,2.23,0,0,1-2.23-2.23c0-.1,0-.2,0-.3l3.84-28.58a2.24,2.24,0,0,1,2.21-1.93H744a2.22,2.22,0,0,1,2.23,2.23,1.51,1.51,0,0,1,0,.3l-3.84,28.57A2.24,2.24,0,0,1,740.21,955.28Zm-219.64-4.46H738.25l3.25-24.12H523.81Z" transform="translate(-1.11 -9.99)"/>
            <path d="M642.54,1053.24H465.25a2.23,2.23,0,0,1,0-4.46H640.59l3.25-24.12H457a2.23,2.23,0,0,1,0-4.46H646.39a2.23,2.23,0,0,1,2.23,2.25,1.37,1.37,0,0,1,0,.28l-3.85,28.58A2.22,2.22,0,0,1,642.54,1053.24Z" transform="translate(-1.11 -9.99)"/>
          </g>
        </g>
      </g>
      <g>
        <g>
          <g>
            <g>
              <polygon class="cls-1" points="1757.4 1669.76 1751.84 1723.14 1715.98 1727.37 1715.98 1664.07 1757.4 1669.76"/>
              <path d="M1717.09,1739.6a2.25,2.25,0,0,1-2.23-2.23v-63.3a2.24,2.24,0,0,1,2.26-2.23,1.23,1.23,0,0,1,.27,0l41.43,5.69a2.21,2.21,0,0,1,1.91,2.44l-5.56,53.38a2.24,2.24,0,0,1-2,2l-35.86,4.23Zm2.23-63v58.23l31.59-3.73,5.16-49.46Z" transform="translate(-1.11 -9.99)"/>
            </g>
            <g>
              <g>
                <path class="cls-1" d="M1711.44,1830.29a249.13,249.13,0,0,0,68.24,0,16.12,16.12,0,0,0,13.69-18.22,14.22,14.22,0,0,0-.31-1.58c-6.33-25.91-17.24-75.08-36-97.87l-4.65,12.36-6.43-11.64a5.66,5.66,0,0,0-4.26-2.9l-14.07-1.79a5.68,5.68,0,0,0-6.29,4.5l-2.24,10.72-8.58-14-3.81,52.49a217.71,217.71,0,0,1-5,33.39l-3.84,16.56A16.08,16.08,0,0,0,1711.44,1830.29Z" transform="translate(-1.11 -9.99)"/>
                <path d="M1745.34,1834.86a246.34,246.34,0,0,1-34.21-2.36,18.37,18.37,0,0,1-15.48-20.56l3.88-16.77a216.43,216.43,0,0,0,5-33l3.81-52.49a2.24,2.24,0,0,1,2.39-2.07,2.2,2.2,0,0,1,1.74,1.07l5.64,9.24,1.09-5.2a8,8,0,0,1,8.75-6.26l14.08,1.79a8,8,0,0,1,5.92,4l4.09,7.41,3-7.84a2.23,2.23,0,0,1,2.88-1.29,2.09,2.09,0,0,1,.92.66c17.79,21.63,28.62,66.4,35.08,93.15l1.36,5.61a18.36,18.36,0,0,1-13.43,22.19c-.6.14-1.21.26-1.81.35A251.73,251.73,0,0,1,1745.34,1834.86Zm-33.06-118-3.31,45.55a218.37,218.37,0,0,1-5.1,33.73L1700,1812.7a13.88,13.88,0,0,0,11.73,15.35,246.21,246.21,0,0,0,67.62,0,13.89,13.89,0,0,0,11.78-15.72,12.19,12.19,0,0,0-.26-1.34l-1.36-5.62c-6.08-25.13-16-66.37-31.78-88.24l-3.24,8.6a2.23,2.23,0,0,1-2.89,1.25,2.34,2.34,0,0,1-1.11-1l-6.51-11.64a3.39,3.39,0,0,0-2.59-1.76l-14.08-1.8a3.48,3.48,0,0,0-3.82,2.75l-2.23,10.72a2.24,2.24,0,0,1-4.09.7Z" transform="translate(-1.11 -9.99)"/>
              </g>
              <path d="M1744.23,1819c-18.23,0-29.33-3.9-30-4.15a2.23,2.23,0,0,1,1.29-4.27l.22.08c.24.08,23.92,8.35,58.84.34a2.23,2.23,0,1,1,1,4.35A140.68,140.68,0,0,1,1744.23,1819Z" transform="translate(-1.11 -9.99)"/>
              <path d="M1761.54,1778h-.07l-33.61-1.12a2.23,2.23,0,1,1-.1-4.46h.25l33.6,1.11a2.23,2.23,0,1,1-.07,4.46Z" transform="translate(-1.11 -9.99)"/>
            </g>
          </g>
          <g>
            <g>
              <polygon class="cls-1" points="1589.46 1641.33 1584.08 1719.23 1540.94 1719.23 1538.93 1641.33 1589.46 1641.33"/>
              <path d="M1585.19,1731.46H1542a2.25,2.25,0,0,1-2.23-2.17l-2-77.9a2.25,2.25,0,0,1,.64-1.61,2.19,2.19,0,0,1,1.59-.68h50.53a2.23,2.23,0,0,1,2.22,2.39l-5.37,77.9A2.24,2.24,0,0,1,1585.19,1731.46Zm-41-4.46h38.89l5.07-73.44H1542.3Z" transform="translate(-1.11 -9.99)"/>
            </g>
            <g>
              <g>
                <path class="cls-1" d="M1596.47,1773.21a15.68,15.68,0,0,1-12,15.51c-24.8,5.81-80.68,18.75-96.62,21.13-20.68,3.1-46.11-3.28-57-15.45s24.48-41.26,41.28-51.84c25-15.72,48.94-46.79,59-48.19s28.82,28,28.82,28l30.69-13S1595.91,1735.83,1596.47,1773.21Z" transform="translate(-1.11 -9.99)"/>
                <path d="M1477,1812.87c-19,0-38.62-6.66-47.89-17a10.55,10.55,0,0,1-2.49-8.87c2.14-15.32,30.73-37.84,44.24-46.35,12.26-7.72,24.16-19.09,34.66-29.11,11.3-10.8,19.47-18.6,25.22-19.39,10.08-1.42,25.11,20,30,27.39l29-12.25a2.18,2.18,0,0,1,3,1.62c.06.26,5.4,27.09,6,64.24a18,18,0,0,1-13.75,17.72c-23.74,5.56-80.7,18.76-96.8,21.17A76.11,76.11,0,0,1,1477,1812.87Zm54.81-116.32h-.45c-4.33.6-13.28,9.15-22.76,18.2-10.65,10.18-22.72,21.7-35.36,29.66-13.83,8.71-40.4,30.32-42.2,43.2a6.23,6.23,0,0,0,1.39,5.27c10.2,11.36,34.38,17.83,55,14.74,15.93-2.39,72.75-15.56,96.44-21.1a13.52,13.52,0,0,0,10.31-13.31,402.61,402.61,0,0,0-5.36-60.74l-28.13,11.89a2.22,2.22,0,0,1-2.75-.85c-7.24-11.37-19.94-27-26.13-27Z" transform="translate(-1.11 -9.99)"/>
              </g>
              <path d="M1477.32,1793.77c-13.49,0-25.55-2.21-34.26-7.92a2.24,2.24,0,0,1-.53-3.11,2.22,2.22,0,0,1,3-.62c32,21,117.28-10.06,134-16.49a2.23,2.23,0,1,1,1.76,4.1l-.16.06C1563.45,1776.58,1514.88,1793.77,1477.32,1793.77Z" transform="translate(-1.11 -9.99)"/>
              <path d="M1525.25,1751.39a2.24,2.24,0,0,1-1.56-.64l-17.87-17.5a2.23,2.23,0,0,1,3.12-3.19l17.87,17.5a2.22,2.22,0,0,1,0,3.15h0A2.32,2.32,0,0,1,1525.25,1751.39Z" transform="translate(-1.11 -9.99)"/>
            </g>
          </g>
          <g>
            <g>
              <path class="cls-1" d="M1770.75,1143.51s13.37,243.52,20.36,327.58-16.36,219.19-16.36,219.19l-66.59-3.52s-4.57-164.3-9.52-209.92c0,0-28.13-61.85-36.46-117s-36.74-142.29-36.74-142.29-23.07,434.89-25.29,469.06c0,0-52.22,2.34-71-9.52,0,0-33.17-158.57-28.41-244.85s-.47-300.64-.47-300.64Z" transform="translate(-1.11 -9.99)"/>
              <path d="M1774.76,1692.51h-.12L1708,1689a2.24,2.24,0,0,1-2.11-2.17c-.05-1.64-4.6-163.89-9.47-209.39-2.23-5-28.51-64.52-36.49-117.27-6.41-42.45-25-104.63-33-130.25-3.77,71-22.65,426.27-24.64,456.82a2.24,2.24,0,0,1-2.12,2.09c-2.17.1-53.14,2.23-72.24-9.86a2.29,2.29,0,0,1-1-1.43c-.33-1.59-33.18-159.85-28.46-245.43,4.71-85.21-.42-298.32-.47-300.47a2.23,2.23,0,0,1,.67-1.64,2.3,2.3,0,0,1,1.66-.64l270.43,11.93a2.22,2.22,0,0,1,2.12,2.11c.14,2.44,13.45,244.45,20.38,327.52,6.94,83.38-16.16,218.4-16.39,219.75A2.23,2.23,0,0,1,1774.76,1692.51Zm-64.43-7.87,62.56,3.31c2.8-16.91,22.44-139.32,16-216.67-6.58-79.09-19-302-20.26-325.63l-266-11.74c.55,23.79,4.85,217.95.4,298.43-4.5,81.55,25.45,230,28.18,243.33,16.46,9.57,57.34,9,66.86,8.76,2.83-46,24.93-462.74,25.16-467a2.23,2.23,0,0,1,4.35-.57c.28.87,28.55,87.94,36.82,142.65,8.19,54.21,36,115.81,36.29,116.42a1.82,1.82,0,0,1,.19.69C1705.46,1519,1709.78,1665.51,1710.33,1684.64Z" transform="translate(-1.11 -9.99)"/>
            </g>
            <path d="M1731.27,1479.05h-20.36a2.23,2.23,0,0,1,0-4.46h20.36a2.23,2.23,0,1,1,0,4.46Z" transform="translate(-1.11 -9.99)"/>
            <path d="M1565.9,1605.54a2.24,2.24,0,0,1-2.23-2.19c-.72-39-45.36-112.42-45.81-113.16a2.23,2.23,0,1,1,3.81-2.33c1.86,3.05,45.72,75.17,46.46,115.41a2.24,2.24,0,0,1-2.19,2.27Z" transform="translate(-1.11 -9.99)"/>
          </g>
        </g>
        <g>
          <g>
            <path class="cls-1" d="M1459.27,758.28c-3.69-.29-34.38,52.4-48.82,77.56a14.52,14.52,0,0,1-19.8,5.42l-.45-.26-112.85-69.67A74.29,74.29,0,0,1,1254.28,749c-9.43-14.36-15-29-27.65-39.16-10.26-8.3-20.65-17.52-23.76-19.93-1.95-1.51-11,4.93-4.19,16.37,2.1,3.52,9.93,10.64,12.07,13.88a14.54,14.54,0,0,1-.38,16.91c-4,5.2-7.43,13.54-2.88,25.14,6.72,17.17,22,21.41,30.59,22.41a17.46,17.46,0,0,1,11.2,5.9l104.14,119.33a50.23,50.23,0,0,0,64.1,9.91c33.86-20.68,77.45-62.36,108.85-115Z" transform="translate(-1.11 -9.99)"/>
            <path d="M1391.34,929.35a52.51,52.51,0,0,1-39.6-18.07L1247.6,792a15.2,15.2,0,0,0-9.77-5.15c-9-1-25.25-5.53-32.42-23.81-5-12.77-1-21.91,3.2-27.33a12.25,12.25,0,0,0,.28-14.31,58.82,58.82,0,0,0-5.26-6c-2.76-2.9-5.61-5.91-6.86-8-4.94-8.28-2.55-14.89,1-18,2.26-2,4.86-2.51,6.46-1.26,1.35,1,4,3.28,7.28,6.11,4.46,3.82,10.58,9,16.52,13.84,9.24,7.48,14.76,17.07,20.61,27.22,2.35,4.08,4.78,8.3,7.5,12.46a72.64,72.64,0,0,0,22.38,21.7l112.85,69.66a12.3,12.3,0,0,0,17.15-4.37c45.37-79.1,48.69-78.83,50.93-78.68a2.24,2.24,0,0,1,1.09.39l67.1,46.41a2.22,2.22,0,0,1,.65,3c-33.77,56.63-78.76,97-109.61,115.8A52.51,52.51,0,0,1,1391.34,929.35ZM1201.9,692a5.76,5.76,0,0,0-2.65,2.69c-1,2-1.64,5.45,1.35,10.47,1,1.67,3.79,4.62,6.26,7.22a58.8,58.8,0,0,1,5.75,6.57,16.7,16.7,0,0,1-.48,19.51c-5.1,6.55-6,14.28-2.57,23,6.32,16.11,20.74,20.08,28.78,21A19.63,19.63,0,0,1,1251,789l104.14,119.33a48,48,0,0,0,61.26,9.47c30.07-18.37,73.8-57.49,107-112.49L1459.23,761c-4,4.06-18,25.71-46.84,76a16.75,16.75,0,0,1-22.83,6.31L1389,843l-112.85-69.67a77,77,0,0,1-23.77-23c-2.79-4.26-5.26-8.54-7.64-12.67-5.63-9.79-11-19-19.54-26-6-4.84-12.13-10.09-16.62-13.92C1205.66,695.08,1203.26,693,1201.9,692Z" transform="translate(-1.11 -9.99)"/>
          </g>
          <g>
            <path d="M1846.59,856.28s7.51-138.73-97.36-177.7c-81.21-30.18-184.92-17.16-217.42-5.89-80,27.76-119.41,133.49-119.41,133.49l93.78,13.22s-28.26,303.77-16,371.53c0,0,75.47,8.86,107.48-3.83s137.26-30.47,187.57-7.21L1776.09,855Z" transform="translate(-1.11 -9.99)"/>
            <path class="cls-1" d="M1543.43,1196.2a514.59,514.59,0,0,1-53.51-3.06,2.26,2.26,0,0,1-1.94-1.82c-11.77-65.06,13.09-340.72,15.79-370l-91.68-12.92a2.23,2.23,0,0,1-1.9-2.52,2.59,2.59,0,0,1,.12-.48c.4-1.07,40.68-107,120.77-134.81,35.48-12.31,139.41-23.65,218.92,5.9,43.58,16.19,74.48,52.48,89.38,104.94a256.78,256.78,0,0,1,9.44,75,2.23,2.23,0,0,1-2.23,2.11h0l-68.17-1.27,9.08,322.59a2.21,2.21,0,0,1-2.13,2.29,2.14,2.14,0,0,1-1-.2c-50.23-23.23-154.33-5.23-185.82,7.25C1584.75,1194.61,1563.5,1196.2,1543.43,1196.2Zm-51.34-7.31c11.21,1.19,76.22,7.44,104.75-3.87,31.33-12.42,133.6-30.15,186.06-8.57l-9-321.41a2.32,2.32,0,0,1,.64-1.64,2.44,2.44,0,0,1,1.63-.66l68.3,1.27c.34-17.63-1-138-96-173.34-78.46-29.16-181-18-215.91-5.87-71.18,24.69-110.33,113.23-117,129.57l91,12.82a2.23,2.23,0,0,1,1.92,2.41c-.36,3-27.74,299.48-16.39,369.29Z" transform="translate(-1.11 -9.99)"/>
          </g>
          <path class="cls-1" d="M1715.88,1115.16h-.39c-122.43-21.78-158.23-107.57-158.58-108.43a2.23,2.23,0,0,1,4.1-1.74c.34.84,35.34,84.38,155.22,105.71a2.23,2.23,0,0,1-.39,4.42Z" transform="translate(-1.11 -9.99)"/>
          <g>
            <polygon class="cls-1" points="1491.01 958.02 1644.66 958.02 1596.53 785.27 1442.89 785.27 1491.01 958.02"/>
            <path d="M1645.77,970.25H1492.12a2.24,2.24,0,0,1-2.15-1.63l-48.12-172.75a2.24,2.24,0,0,1,1.55-2.75,2.06,2.06,0,0,1,.6-.08h153.64a2.23,2.23,0,0,1,2.15,1.63l48.12,172.76a2.2,2.2,0,0,1-1.53,2.73A2.1,2.1,0,0,1,1645.77,970.25Zm-152-4.46h149L1595.89,797.5h-149Z" transform="translate(-1.11 -9.99)"/>
          </g>
          <g>
            <path class="cls-1" d="M1828.38,856.4l-67.56-3.06s-.51,57.27-6.61,58.29c-21.72,3.65-67.2,3.83-96.81.23A23.86,23.86,0,0,1,1637,892.4,34.15,34.15,0,0,0,1620.77,869c-10.22-6.34-.14,13.6-9.7,26.44-5.14,6.89-21.41,3.84-43.6-1.34s-27.82,18.7-3,33.12c27,15.63,44.08,13.88,52.68,15.71,17.12,3.65,168.51,27.53,191.88,14.75C1827.13,947.78,1828.38,856.4,1828.38,856.4Z" transform="translate(-1.11 -9.99)"/>
            <path d="M1779.71,963.65c-54,0-154.41-16.73-163-18.56-1.72-.36-3.91-.59-6.46-.85-10.06-1-25.26-2.58-46.87-15.11-15.65-9.08-19.49-21.53-16.43-29.25,2.26-5.7,9-10.77,21-8,20,4.67,36.93,8,41.3,2.18s4.21-13.31,4.16-18.84c0-4.56-.06-7.86,2.39-9.24,2.06-1.16,4.48.06,6.12,1.07A36.62,36.62,0,0,1,1639.15,892a21.62,21.62,0,0,0,18.49,17.66c29.17,3.54,73.81,3.46,95.84-.16,2.86-3.49,4.86-31.63,5.07-56.17a2.26,2.26,0,0,1,2.27-2.22h.07l67.56,3.07a2.21,2.21,0,0,1,2.13,2.25c-.13,9.49-1.8,93-20.46,103.18C1804.88,962.5,1793.89,963.65,1779.71,963.65Zm-218.06-68c-5.16,0-9,2.09-10.53,5.92-2.38,6,1.15,16,14.52,23.75,20.77,12,35.41,13.55,45.09,14.53a67.06,67.06,0,0,1,6.93.93c17.45,3.72,167.92,27.24,190.35,15,13.49-7.38,17.57-70.65,18.11-97.17L1763,855.7c-.07,4.65-.31,15.63-1,26.57-1.75,28.29-4.64,31.12-7.45,31.59-22.25,3.73-67.78,3.85-97.44.25a26,26,0,0,1-22.34-21.27,31.86,31.86,0,0,0-15.2-21.94,7.59,7.59,0,0,0-1.5-.77,33.5,33.5,0,0,0-.2,5.11c0,5.82.13,14.6-5.05,21.54-6,8.07-22.81,4.89-45.88-.49a23.06,23.06,0,0,0-5.3-.69Z" transform="translate(-1.11 -9.99)"/>
          </g>
        </g>
        <g>
          <g>
            <path class="cls-1" d="M1595.71,675.17s17.5-10.77,17.33-17.06l5-32.31a6.81,6.81,0,0,0-4.52-6.58l-20.69-7.11a6.31,6.31,0,0,1-4.16-6.36l1.61-25.68-8.11-7.18a1.59,1.59,0,0,1-.17-2.19l12.81-15.6c4.18-5.9,8.39-20,11.82-19.05,0,0,73-8.43,76.54,28.37a22.33,22.33,0,0,1-4.18,15l-6.46,9.11a46.8,46.8,0,0,0-8.76,31.58c.24,2.33,3.27,17.33,5.3,27.25a23.91,23.91,0,0,0,8.82,14.13c5.7,4.39,12.64,10,11.51,10.35A108,108,0,0,1,1668.56,683a76.93,76.93,0,0,1-69.37-5.76Z" transform="translate(-1.11 -9.99)"/>
            <path d="M1639.76,691a80.33,80.33,0,0,1-41.75-11.8l-3.47-2.12a2.25,2.25,0,0,1-.73-3.07,2.31,2.31,0,0,1,.73-.73c7.89-4.86,16.35-12,16.27-15.1a2.67,2.67,0,0,1,0-.4l5-32.14a4.58,4.58,0,0,0-3-4.31l-20.67-7.1a8.58,8.58,0,0,1-5.66-8.61L1588,581l-7.3-6.46a3.8,3.8,0,0,1-.42-5.27l12.81-15.61a63.5,63.5,0,0,0,4.43-8.5c3.08-6.62,5.55-11.9,9.22-11.38,4.71-.51,48.13-4.67,68.43,11.74a26.5,26.5,0,0,1,10.23,18.67,24.49,24.49,0,0,1-4.58,16.51l-6.46,9.11a44.36,44.36,0,0,0-8.36,30.09c.1,1,.92,5.78,5.27,27a21.63,21.63,0,0,0,8,12.81c12.89,9.93,12.73,10.85,12.47,12.38a2.59,2.59,0,0,1-1,1.53,109.35,109.35,0,0,1-21.31,11.46A77.66,77.66,0,0,1,1639.76,691Zm-39.85-15.83.43.27a75,75,0,0,0,67.36,5.6,114.48,114.48,0,0,0,18.59-9.72c-1.32-1.24-4.06-3.6-9.77-8a26.16,26.16,0,0,1-9.64-15.45c-3.35-16.36-5.14-25.6-5.34-27.47a48.91,48.91,0,0,1,9.16-33.1l6.47-9.11a20.07,20.07,0,0,0,3.77-13.5,21.93,21.93,0,0,0-8.59-15.63c-19.59-15.84-65-10.79-65.48-10.74a3.23,3.23,0,0,1-.44,0c-1.23.93-3.51,5.82-4.89,8.79a62.52,62.52,0,0,1-4.93,9.33l-12.5,15.25,7.64,6.77a2.19,2.19,0,0,1,.75,1.8l-1.62,25.68a4.12,4.12,0,0,0,2.68,4.12l20.67,7.1a9,9,0,0,1,6,8.73,1.5,1.5,0,0,1,0,.3l-5,32.14c-.07,5.73-9.87,13.12-15.32,16.79Z" transform="translate(-1.11 -9.99)"/>
          </g>
          <path d="M1604.19,480c16.63-.86-4.4,16.28,57.21-1.43,24.54-7,11.94,21.74,18.31,19.93,23.52-6.7,22.71-6.49,34.14-3.37,7.58,2.06,12.41,16.23,10.9,26.77-2,13.93-17.61,36-31.59,59.39-7.24,12.1-20.07,13.19-35.57-4.81-1.65-1.92,6.78-13.2,2.38-18.07-11.45-12.65-16.53,6.46-25.77.56-8.87-5.67-12.53-9.33-21.91-17.89-11.34-10.37-30.39,5.76-37-17.56C1571.91,511.39,1581.42,481.21,1604.19,480Z" transform="translate(-1.11 -9.99)"/>
        </g>
      </g>
      <g>
        <g>
          <g>
            <g>
              <g>
                <path class="cls-1" d="M1059.76,1754.82a18.88,18.88,0,0,0,10-3.44c15.09-10.7,46.46-34.6,67.89-31.61,35.89,5,40.14,34.3,40.14,34.3s30.27-1.12,29.67,19c-.46,15.46-9.27,35.1-33.74,45.91-33.36,14.74-66.81,26-103.72,1.78a37.2,37.2,0,0,0-24.19-6c-20.74,2.09-329.82,8.75-329.82,8.75a190.19,190.19,0,0,1-168.4-101.85l-65.14-124.27,74.64-208.55,117,271.9C730.8,1738.13,1053.85,1756.16,1059.76,1754.82Z" transform="translate(-1.11 -9.99)"/>
                <path d="M1115,1837c-15,0-30.37-4-46.29-14.38A35.18,35.18,0,0,0,1046,1817c-20.59,2.07-317.38,8.48-330,8.76a191.87,191.87,0,0,1-170.42-103l-65.15-124.26a2.28,2.28,0,0,1-.12-1.79L555,1388.08a2.22,2.22,0,0,1,2.83-1.36,2.18,2.18,0,0,1,1.31,1.23L676,1659.61c55,74.27,370.84,94.57,383.33,93a1.27,1.27,0,0,1,.39,0,17.09,17.09,0,0,0,8.68-3l3.5-2.5c16.91-12.12,45.21-32.4,66-29.5,31.68,4.41,39.88,27.43,41.62,34.28,4.85.08,17.84,1,25.08,8.21a17,17,0,0,1,5,13.11c-.23,7.7-3.44,33.91-35.07,47.88C1155.58,1829.44,1135.75,1837,1115,1837Zm-65.66-24.68a39.85,39.85,0,0,1,21.81,6.57c36.14,23.68,68.68,12.59,101.6-2,29.24-12.91,32.2-36.9,32.41-43.94a12.57,12.57,0,0,0-3.7-9.8c-7.46-7.41-23.49-6.92-23.66-6.92h-.08a2.24,2.24,0,0,1-2.2-1.91c-.17-1.12-4.53-27.72-38.25-32.42-19-2.63-47.48,17.76-62.77,28.72l-3.52,2.51a21.77,21.77,0,0,1-11.27,3.85c-7.74.43-88.46-4-174.12-17.55-80.8-12.78-183.39-36.59-213.33-77.45a2.76,2.76,0,0,1-.25-.44l-114.8-266.69-72.4,202.29,64.69,123.4A187.41,187.41,0,0,0,716,1821.27c3-.07,309.18-6.68,329.6-8.74a36.75,36.75,0,0,1,3.77-.19Z" transform="translate(-1.11 -9.99)"/>
              </g>
              <g>
                <g>
                  <path class="cls-1" d="M978.55,1698.92l29.89-52.32,24.54,15.92a10.18,10.18,0,0,1,3.29,3.46l1.47,2.52a10.24,10.24,0,0,0,8.9,5.1,9.93,9.93,0,0,1,5.6,1.63l182.47,118.18a20.22,20.22,0,0,1,4.08,3.47l36.87,40.88-51.33-11.6a33.3,33.3,0,0,1-8-3l-192-100.39a10.44,10.44,0,0,1-4-3.72l-.25-.4a10.14,10.14,0,0,0-8.68-4.87h-1.78a10,10,0,0,1-4.69-1.15Z" transform="translate(-1.11 -9.99)"/>
                  <path d="M1275.66,1840a4.28,4.28,0,0,1-.49,0l-51.33-11.6a35.75,35.75,0,0,1-8.59-3.16l-192-100.39a12.75,12.75,0,0,1-4.85-4.54l-.25-.39a8,8,0,0,0-6.74-3.81h-1.86a12.52,12.52,0,0,1-5.68-1.4l-26.31-13.75a2.23,2.23,0,0,1-.94-3,.59.59,0,0,1,0-.08l29.89-52.32a2.24,2.24,0,0,1,3.05-.83l.1.07,24.53,15.92a12.31,12.31,0,0,1,4,4.21l1.47,2.52a8,8,0,0,0,6.85,4h.25a12.09,12.09,0,0,1,6.68,2L1236,1791.56a22.16,22.16,0,0,1,4.52,3.85l36.88,40.88a2.23,2.23,0,0,1-.16,3.15,2.29,2.29,0,0,1-1.5.57Zm-264.29-128.4a12.42,12.42,0,0,1,10.54,5.93l.24.39a8.28,8.28,0,0,0,3.13,2.92l192,100.4a31.58,31.58,0,0,0,7.52,2.76l44.47,10-32.17-35.66a17.69,17.69,0,0,0-3.64-3.1L1051,1677.1a7.32,7.32,0,0,0-4.35-1.27h-.15a12.43,12.43,0,0,1-10.71-6.21l-1.47-2.52a7.79,7.79,0,0,0-2.58-2.71l-22.55-14.64L981.64,1698l24.25,12.68a8.13,8.13,0,0,0,3.65.89h1.83Z" transform="translate(-1.11 -9.99)"/>
                </g>
                <path d="M1225.48,1818.74a2.25,2.25,0,0,1-2-3.26l11-21.23a2.24,2.24,0,1,1,4,2h0l-11,21.23A2.25,2.25,0,0,1,1225.48,1818.74Z" transform="translate(-1.11 -9.99)"/>
                <g>
                  <path d="M965.94,1620.69l43.48,26.28-30.68,52.24-43.48-26.28a16.91,16.91,0,0,1-6.1-22.89l14-23.89a16.41,16.41,0,0,1,22.5-5.64Z" transform="translate(-1.11 -9.99)"/>
                  <path d="M978.74,1701.44a2.24,2.24,0,0,1-1.15-.32l-43.49-26.28a19.18,19.18,0,0,1-6.87-25.93l14-23.89a18.15,18.15,0,0,1,11.29-8.45,19,19,0,0,1,14.54,2.21l43.48,26.28a2.22,2.22,0,0,1,.77,3l-30.68,52.24a2.19,2.19,0,0,1-1.37,1A2.21,2.21,0,0,1,978.74,1701.44Zm-21.56-81a14,14,0,0,0-12.07,6.83l-14,23.89a14.68,14.68,0,0,0,5.33,19.85L978,1696.12l28.42-48.39-41.6-25.14a14.62,14.62,0,0,0-7.63-2.14Z" transform="translate(-1.11 -9.99)"/>
                </g>
                <path d="M1021.56,1708.59a2.21,2.21,0,0,1-1.14-.32,2.24,2.24,0,0,1-.77-3h0l14.79-24.57a2.23,2.23,0,0,1,4,2.08,2.39,2.39,0,0,1-.13.21l-14.79,24.58A2.23,2.23,0,0,1,1021.56,1708.59Z" transform="translate(-1.11 -9.99)"/>
                <path d="M1108.89,1729.37a2.27,2.27,0,0,1-1.18-.34l-54.45-34.18a2.23,2.23,0,0,1,2.37-3.78h0l54.45,34.18a2.23,2.23,0,0,1-1.19,4.12Z" transform="translate(-1.11 -9.99)"/>
                <path d="M1222.4,1799.78a2.21,2.21,0,0,1-1.17-.34L1200,1786.2a2.23,2.23,0,0,1,2.3-3.83l0,0,21.27,13.24a2.23,2.23,0,0,1-1.18,4.13Z" transform="translate(-1.11 -9.99)"/>
                <path class="cls-1" d="M973.89,1680.45a2.26,2.26,0,0,1-1.16-.33l-33.14-20.35a2.23,2.23,0,0,1,2.34-3.8l33.13,20.34a2.22,2.22,0,0,1,.76,3.06,2.25,2.25,0,0,1-1.93,1.08Z" transform="translate(-1.11 -9.99)"/>
              </g>
              <path class="cls-1" d="M1059.76,1754.82s44.54-5.55,72.9-1.62c22.09,3.07,87.47-12.63,73.81,29.66-2.94,9.11-4.49,15.18-12.59,23.77-4.42,4.7-16.54,14.39-23.41,17.42-33.39,14.75-63.65,20.92-100.61-3.35a37,37,0,0,0-24.07-6C1040.86,1815.25,1058.19,1755.17,1059.76,1754.82Z" transform="translate(-1.11 -9.99)"/>
              <path d="M1119.63,1839.22c-16.34,0-32.93-4.79-51-16.65A35,35,0,0,0,1046,1817c-5.44.55-22.87,1.15-23.61,1.18a2.23,2.23,0,0,1-.15-4.46c.18,0,18-.63,23.31-1.16a39.47,39.47,0,0,1,25.52,6.31c35.37,23.23,63.9,18.44,98.48,3.17,6.4-2.83,18.3-12.25,22.69-16.91,7.2-7.64,8.91-13,11.5-21.11l.59-1.81c2.53-7.85,2.31-13.6-.68-17.59-6.64-8.85-26.37-8.29-43.78-7.81-11,.31-21.29.6-27.89-1.45-33.65-10.45-71.18,1.49-71.55,1.61-1.86.43-6.71.28-18.08-.49a2.23,2.23,0,0,1,.27-4.46h0c9.88.67,15.45.89,16.58.64,1.39-.46,39-12.45,74.06-1.57,5.89,1.83,15.88,1.55,26.44,1.26,18.5-.53,39.46-1.11,47.48,9.59,3.87,5.16,4.32,12.44,1.35,21.63l-.58,1.8c-2.67,8.38-4.61,14.43-12.5,22.81-4.61,4.9-17,14.8-24.13,17.93C1153.51,1834,1136.71,1839.22,1119.63,1839.22Z" transform="translate(-1.11 -9.99)"/>
            </g>
            <g>
              <path class="cls-1" d="M374.89,1242.71S512,1260.88,557.6,1316.39c57.7,70.3,82.57,174.75,90.65,219.9a101.46,101.46,0,0,1-.84,40l-3.35,15.08a111.72,111.72,0,0,1-114.85,87.28h2.73c-8.8-.45-21.64-3.36-25.37-11.35L492.16,1641l-1.35,9.47c-10.84,70,45.7,165.79,45.7,165.79l-162.23-21.89c-83.35-8.37-162.67-41.21-226.3-95.7-34.55-29.58-61.26-57.25-72.79-90.87-19.56-57.08-17.78-73.34-23.27-142.59C48.19,1418.05,62,1371,91.6,1334,135.06,1279.81,218.72,1222.9,374.89,1242.71Z" transform="translate(-1.11 -9.99)"/>
              <path d="M536.51,1818.5h-.3L374,1796.59c-85.26-8.56-163.94-41.83-227.45-96.21-30.85-26.42-61.1-55.82-73.44-91.85-16.54-48.24-17.91-67.39-21.2-113.66-.62-8.73-1.31-18.42-2.19-29.47-3.84-48.48,10.42-95.62,40.16-132.74,42.58-53.15,126.65-112.3,285.31-92.16h0c5.64.74,138.56,18.92,184.15,74.48,61.2,74.57,85.21,187.94,91.11,220.92a103.21,103.21,0,0,1-.85,40.87l-3.36,15.08a113.57,113.57,0,0,1-117.13,89,2.38,2.38,0,0,1-1-.31c-9.67-1.13-20-4.82-23.52-12.32L493.42,1648l-.4,2.85c-10.6,68.4,44.85,163.38,45.41,164.33a2.23,2.23,0,0,1-1.92,3.37ZM314.1,1240.93c-118.1,0-184.65,49.44-220.76,94.52-29,36.23-42.95,82.25-39.19,129.6.88,11.06,1.57,20.77,2.19,29.5,3.26,45.86,4.61,64.85,21,112.54,12,35,41.76,63.9,72.13,89.9,62.82,53.78,140.64,86.69,225.07,95.17l157.84,21.29c-10.61-19-53.45-100.58-43.74-163.31l1.35-9.45a2.24,2.24,0,0,1,2.52-1.9,2.21,2.21,0,0,1,1.65,1.15l14.41,26.29c3.19,6.82,14.65,9.73,23.53,10.2a2,2,0,0,1,.6.11,109.15,109.15,0,0,0,109.22-85.66l3.36-15.08a98.73,98.73,0,0,0,.81-39.12c-5.85-32.7-29.65-145.14-90.17-218.88-44.48-54.2-179.92-72.7-181.29-72.88A478.45,478.45,0,0,0,314.1,1240.93Z" transform="translate(-1.11 -9.99)"/>
            </g>
            <path d="M501.47,1667.93a2.23,2.23,0,0,1-2-1.27L461,1586a2.23,2.23,0,1,1,3.81-2.33,1.92,1.92,0,0,1,.19.41l38.42,80.68a2.22,2.22,0,0,1-1,3l0,0A2.3,2.3,0,0,1,501.47,1667.93Z" transform="translate(-1.11 -9.99)"/>
          </g>
          <g>
            <path d="M396.39,968l10.07-6.72a21,21,0,0,0,8.12-24.72c-10.12-27.34-47-75-181.21-38.8-136.83,36.9-112.64,256.46,3.93,303.38s156.16-194.29,156.16-194.29Z" transform="translate(-1.11 -9.99)"/>
            <g>
              <path class="cls-1" d="M379.57,973a9.14,9.14,0,0,1,16.93-2.82c10.23,18,15.12,30.48,16.75,38.11,2.2,10.26-7.33,20.53-2.2,31.53s13.2,23.46,13.93,43.25c.72,19.34,20.34,108-48.54,105.19a4.7,4.7,0,0,0-4.92,4.46c0,.09,0,.17,0,.26.17,13.5.89,50.61,3.89,70.7A22,22,0,0,1,359.55,1288c-27.57,7.79-78.9,18.75-117.32,6.26a18.67,18.67,0,0,1-11.83-23.58c.06-.16.11-.33.17-.49,4.54-12.61,10.88-48,6.73-69.13a170.21,170.21,0,0,0,48.62-14c39.37-18.06,58.74-62,47.86-104-2.34-9-7.4-21.84-2.13-35.42,13.6-35,34,.18,34,.18Z" transform="translate(-1.11 -9.99)"/>
              <path d="M282.75,1302.21c-14.25,0-28.42-1.6-41.2-5.76a20.55,20.55,0,0,1-12.19-10.6,20.85,20.85,0,0,1-.89-16.35c4.39-12.2,10.72-47.24,6.64-67.94a2.24,2.24,0,0,1,1.77-2.62.85.85,0,0,1,.23,0,169.74,169.74,0,0,0,47.9-13.83c37.76-17.33,57.38-60,46.63-101.38-.31-1.2-.67-2.47-1.05-3.8-2.46-8.67-5.83-20.54-1-33,4.17-10.72,9.54-16.41,16-16.91,7.87-.6,15,7,18.86,12.15l13-69.54a11.36,11.36,0,0,1,21-3.51c11.53,20.22,15.61,32.23,17,38.74,1.09,5.08-.33,10-1.71,14.73-1.62,5.62-3.16,10.93-.65,16.32.85,1.82,1.78,3.67,2.74,5.6,4.8,9.6,10.77,21.54,11.4,38.52.09,2.35.48,5.93.94,10.09,2.41,21.84,6.89,62.5-13,83.86-9,9.67-22.07,14.24-38.75,13.55a2.46,2.46,0,0,0-1.88.71,2.39,2.39,0,0,0-.73,1.76c.18,14.59.92,50.67,3.86,70.39a24.28,24.28,0,0,1-17.44,26.85C341.64,1295.45,312,1302.21,282.75,1302.21Zm-42.85-99.16c3.43,21.93-2.74,55.47-7.24,68a16.44,16.44,0,0,0,.71,12.88,16.17,16.17,0,0,0,9.55,8.32c37.93,12.33,89,1.35,116-6.29a19.79,19.79,0,0,0,14.27-22c-3-20-3.73-56.31-3.91-71a6.85,6.85,0,0,1,2.08-5,7,7,0,0,1,5.17-2c15.35.62,27.21-3.46,35.31-12.13,18.54-19.87,14.21-59.2,11.88-80.34-.49-4.41-.87-7.9-1-10.41-.59-16-6.08-27-10.93-36.69-1-2-1.92-3.85-2.79-5.7-3.22-6.91-1.29-13.57.41-19.45,1.28-4.41,2.48-8.58,1.63-12.55-1.09-5.08-4.68-16.71-16.51-37.48a6.91,6.91,0,0,0-12.8,2.13l-14,74.88a2.23,2.23,0,0,1-4.12.71c-2.46-4.25-10.39-15.12-17.79-14.57-4.57.36-8.66,5.09-12.15,14.08-4.29,11-1.28,21.64,1.13,30.15.39,1.36.76,2.66,1.08,3.9,11.29,43.51-9.36,88.33-49.09,106.56a174.93,174.93,0,0,1-46.89,14Z" transform="translate(-1.11 -9.99)"/>
            </g>
            <path d="M178.28,942.13S111,910,62,955.9-34.43,1102.81,39,1213c46.16,69.25,63.92,124,70.74,155.1a12.08,12.08,0,0,0,21.86,4.15C161.18,1327.87,215.11,1230,189,1138,153.8,1014.05,178.28,942.13,178.28,942.13Z" transform="translate(-1.11 -9.99)"/>
            <path d="M425.17,1074.44a2.24,2.24,0,0,1-1.15-4.15c22.1-13.26,7.79-50.73,3.82-60l-62.53,31.92a2.24,2.24,0,1,1-2-4l64.61-33a2.16,2.16,0,0,1,1.72-.13,2.22,2.22,0,0,1,1.3,1.14c1,2.06,24,50.66-4.6,67.84A2.29,2.29,0,0,1,425.17,1074.44Z" transform="translate(-1.11 -9.99)"/>
            <path d="M427,1100.07a2.23,2.23,0,0,1-1.57-3.82l8.81-8.73a7.61,7.61,0,0,0,.83-9.89l-6.06-8.46a2.25,2.25,0,0,1,.52-3.12,2.22,2.22,0,0,1,3.11.52h0l6.06,8.46a12,12,0,0,1-1.32,15.65l-8.81,8.74A2.28,2.28,0,0,1,427,1100.07Z" transform="translate(-1.11 -9.99)"/>
            <path d="M356,1107.74a19,19,0,0,1-4.56-.56c-7.63-1.89-14.18-8.41-19.47-19.38a2.25,2.25,0,0,1,1.27-2.89,2.22,2.22,0,0,1,2.73.95c4.67,9.68,10.21,15.4,16.46,17a15.88,15.88,0,0,0,12.18-2.17,2.23,2.23,0,1,1,2.64,3.6h0A20.56,20.56,0,0,1,356,1107.74Z" transform="translate(-1.11 -9.99)"/>
            <g>
              <path class="cls-1" d="M161.36,936.06s62.56,18.84,36.95,78.85c0,0,28.91-20.86,28.18-53.42s-24.88-43.18-41-42.81S161.36,936.06,161.36,936.06Z" transform="translate(-1.11 -9.99)"/>
              <path d="M198.31,1017.14a2.24,2.24,0,0,1-2.18-2.28,2.33,2.33,0,0,1,.18-.83c7.28-17.06,7.91-32.28,1.86-45.23-10.36-22.2-37.14-30.53-37.41-30.61a2.23,2.23,0,0,1-1.39-1.23,2.32,2.32,0,0,1,0-1.86c.36-.74,8.84-18.26,26.12-18.65A42.74,42.74,0,0,1,213.2,926c6.86,5.62,15.12,16.33,15.54,35.43.75,33.35-27.87,54.39-29.09,55.27A2.26,2.26,0,0,1,198.31,1017.14Zm-33.69-82.32c7.37,2.76,28.18,12.06,37.53,32.07,5.59,12,6,25.55,1.33,40.51,8.21-8.13,21.26-24.47,20.78-45.86-.31-13.78-5.12-24.87-13.92-32.08a39.05,39.05,0,0,0-24.78-8.55c-11.16.25-18.24,9.57-20.94,13.91Z" transform="translate(-1.11 -9.99)"/>
            </g>
          </g>
        </g>
        <path d="M42,1449c51.64,31.21,156.65,75.7,325.66,65.38A28.34,28.34,0,0,1,396,1532.66l10.54,42.2a514.21,514.21,0,0,0,102,202.32l25.25,30.63a6.94,6.94,0,0,1-5.86,11.34L416.56,1811C225.28,1785.69,76.68,1689.76,29,1515l-12.71-46.62C12.18,1453.22,28.63,1440.9,42,1449Z" transform="translate(-1.11 -9.99)"/>
      </g>
      <g>
        <g>
          <path class="cls-1" d="M1093.32,260.23h366.92c20.78,0,36.67,16.9,36.67,37.68V404.1c0,20.77-15.89,37.55-36.67,37.55H1447v70.92l-48.28-70.92H1093.32c-20.78,0-38.57-16.78-38.57-37.55V297.91C1054.75,277.13,1072.54,260.23,1093.32,260.23Z" transform="translate(-1.11 -9.99)"/>
          <path d="M1447,514.8a2.26,2.26,0,0,1-1.84-1l-47.62-69.94H1093.31c-22.11,0-40.79-18.22-40.79-39.78V297.91c0-21.63,18.68-39.91,40.79-39.91h366.93c21.81,0,38.9,17.53,38.9,39.91V404.1c0,22.31-17.09,39.78-38.9,39.78h-11v68.69a2.23,2.23,0,0,1-1.57,2.13A2.84,2.84,0,0,1,1447,514.8Zm-353.7-252.34c-19.69,0-36.33,16.24-36.33,35.45V404.1c0,19.15,16.64,35.32,36.33,35.32h305.38a2.22,2.22,0,0,1,1.85,1l44.2,64.93v-63.7a2.23,2.23,0,0,1,2.23-2.23h13.27c19.31,0,34.44-15.51,34.44-35.32V297.91c0-19.88-15.13-35.45-34.44-35.45Z" transform="translate(-1.11 -9.99)"/>
        </g>
        <g>
          <path d="M1231.1,377.26a2.28,2.28,0,0,1-.92-.2l-50.54-22.92a2.24,2.24,0,0,1-1.1-3,2.18,2.18,0,0,1,1.1-1.1L1230.18,327a2.23,2.23,0,1,1,1.85,4.06h0l-46.08,21L1232,373a2.23,2.23,0,0,1-.92,4.26Z" transform="translate(-1.11 -9.99)"/>
          <path d="M1303.49,377.26a2.23,2.23,0,0,1-.92-4.26l46.07-20.89-46.07-21a2.23,2.23,0,0,1,1.85-4.06L1355,350.11a2.18,2.18,0,0,1,0,4L1304.41,377A2.23,2.23,0,0,1,1303.49,377.26Z" transform="translate(-1.11 -9.99)"/>
          <path d="M1246.28,404.17a2.76,2.76,0,0,1-.8-.15,2.24,2.24,0,0,1-1.28-2.88l39.34-102.92a2.23,2.23,0,1,1,4.17,1.59h0l-39.34,102.92A2.24,2.24,0,0,1,1246.28,404.17Z" transform="translate(-1.11 -9.99)"/>
        </g>
      </g>
      <g>
        <g>
          <path d="M1174.09,1645.48a2.23,2.23,0,0,1-.91-4.27c115.08-51,219.46-133.57,301.85-238.86a2.23,2.23,0,1,1,3.57,2.67l-.06.08C1395.7,1511,1290.74,1594,1175,1645.29A2.2,2.2,0,0,1,1174.09,1645.48Z" transform="translate(-1.11 -9.99)"/>
          <path d="M1163,1704.26a2.23,2.23,0,0,1-.8-4.31c110.71-43,209.9-111,294.81-202.4a2.23,2.23,0,0,1,3.58,2.67,1.93,1.93,0,0,1-.31.33c-85.38,91.85-185.12,160.33-296.47,203.52A2.46,2.46,0,0,1,1163,1704.26Z" transform="translate(-1.11 -9.99)"/>
        </g>
        <g>
          <path d="M675.23,85.54a2.23,2.23,0,0,1-.5-4.41C790,54.56,904.11,52.78,1014,75.83a2.23,2.23,0,1,1-.92,4.37C903.83,57.28,790.33,59.06,675.74,85.48A2.1,2.1,0,0,1,675.23,85.54Z" transform="translate(-1.11 -9.99)"/>
          <path d="M1056.83,39a3.73,3.73,0,0,1-.56-.07C962.11,14.5,863.56,8.33,763.35,20.57a2.23,2.23,0,0,1-.54-4.43C863.58,3.83,962.69,10,1057.39,34.6a2.23,2.23,0,0,1-.56,4.39Z" transform="translate(-1.11 -9.99)"/>
        </g>
        <ellipse cx="1118.92" cy="1640.27" rx="14.92" ry="14.91"/>
        <g>
          <path d="M82,779.07a2.24,2.24,0,0,1-1.61-3.78l8.21-8.56a2.23,2.23,0,0,1,3.22,3.08l-8.2,8.57A2.23,2.23,0,0,1,82,779.07Z" transform="translate(-1.11 -9.99)"/>
          <path d="M53.31,809.05a2.23,2.23,0,0,1-1.61-3.77l8.21-8.57a2.23,2.23,0,1,1,3.22,3.09h0l-8.21,8.56A2.21,2.21,0,0,1,53.31,809.05Z" transform="translate(-1.11 -9.99)"/>
          <path d="M61.36,779.53a2.33,2.33,0,0,1-1.56-.64l-8.33-8.2a2.25,2.25,0,0,1,0-3.16,2.22,2.22,0,0,1,3.15,0l8.33,8.2a2.23,2.23,0,0,1-1.57,3.82Z" transform="translate(-1.11 -9.99)"/>
          <path d="M90.52,808.22a2.26,2.26,0,0,1-1.57-.64l-8.32-8.19a2.25,2.25,0,0,1,0-3.16,2.22,2.22,0,0,1,3.15,0h0l8.32,8.19a2.23,2.23,0,0,1-1.56,3.82Z" transform="translate(-1.11 -9.99)"/>
        </g>
        <path d="M1102,80.23a21.9,21.9,0,0,1-7.91-1.49,22.25,22.25,0,0,1-12.39-12A22.76,22.76,0,0,1,1093.1,37a21.62,21.62,0,0,1,16.85-.43,22.15,22.15,0,0,1,12.39,12A22.75,22.75,0,0,1,1111,78.3,21.77,21.77,0,0,1,1102,80.23Zm0-40.7a17.29,17.29,0,0,0-7.11,1.54A18.29,18.29,0,0,0,1085.82,65a17.73,17.73,0,0,0,9.91,9.62,17.26,17.26,0,0,0,13.4-.35,18.28,18.28,0,0,0,9.08-23.89,17.76,17.76,0,0,0-9.91-9.62,17.1,17.1,0,0,0-6.29-1.19Zm-8-.49Z" transform="translate(-1.11 -9.99)"/>
      </g>
    </g>
  </g>
</svg>
